<?xml version="1.0" encoding="UTF-8" standalone="no"?><!DOCTYPE svg PUBLIC "-//W3C//DTD SVG 1.1//EN" "http://www.w3.org/Graphics/SVG/1.1/DTD/svg11.dtd"><svg width="100%" height="100%" viewBox="0 0 954 948" version="1.1" xmlns="http://www.w3.org/2000/svg" xmlns:xlink="http://www.w3.org/1999/xlink" xml:space="preserve" xmlns:serif="http://www.serif.com/" style="fill-rule:evenodd;clip-rule:evenodd;stroke-linejoin:round;stroke-miterlimit:2;"><g id="Layer-1" serif:id="Layer 1"><g><path d="M953.219,947.348l0.213,-947.065c-0,0 -373.31,-0.764 -373.31,0.219l0,0.004l-246.312,0l-333.81,1.541l0,945.301l953.219,-0Z" style="fill:#93c01f;fill-rule:nonzero;"/><g opacity="0.1"><path d="M705.068,0.811l-46.113,-0c-0.32,83.512 -16.337,163.275 -45.07,236.679c-95.667,244.412 -333.38,417.604 -611.696,417.604l-0,-410.533c-0.734,-0 -1.454,-0.046 -2.188,-0.054l0,461.37c0,10.2 0.713,20.23 1.95,30.096l0.696,1.225c324.375,0 599.908,-209.021 699.325,-499.708c25.117,-73.446 38.967,-152.104 39.542,-233.921c-11.884,-1.817 -24.054,-2.758 -36.446,-2.758" style="fill:#fff;fill-rule:nonzero;"/></g><g opacity="0.2"><path d="M577.31,0.811c-0.37,84.458 -19.041,164.55 -52.116,236.679c-90.771,197.942 -290.534,335.5 -522.546,335.5l-0,-82.117c-0.154,0 -0.308,0.013 -0.463,0.013l0,164.208c278.321,0 516.034,-173.192 611.7,-417.604c28.734,-73.404 44.75,-153.167 45.071,-236.679l-81.646,-0Z" style="fill:#fff;fill-rule:nonzero;"/></g><g opacity="0.3"><path d="M494.747,0.811c-0.438,85.883 -22.875,166.529 -61.93,236.679c-84.062,150.987 -245.137,253.212 -430.17,253.383l-0,82.117c232.012,-0 431.775,-137.558 522.545,-335.5c33.08,-72.129 51.75,-152.221 52.117,-236.679l-82.562,-0Z" style="fill:#fff;fill-rule:nonzero;"/></g><g opacity="0.4"><path d="M403.688,0.284c-0.542,88.308 -20.042,170.479 -67.992,237.204c-74.425,103.575 -196.266,163.204 -333.508,163.354l0.458,90.033c185.034,-0.17 346.109,-102.395 430.171,-253.387c39.054,-70.15 61.492,-150.796 61.929,-236.675l-91.058,-0.529Z" style="fill:#fff;fill-rule:nonzero;"/></g><g opacity="0.6"><path d="M249.755,0c-0.034,3.442 -0.041,3.715 -0.003,0.294l-7.04,-0.294c-29.266,0 -242.712,2.047 -242.712,2.047l0,307.332c86.858,-0.121 168.404,-16.721 227.067,-71.892c63.12,-59.358 80.733,-135.52 80.733,-237.487l-58.045,0Z" style="fill:#fff;fill-rule:nonzero;"/></g><g opacity="0.5"><path d="M307.802,0c6.079,130.967 -27.596,167.762 -89.933,232.879c-59.275,61.921 -126.286,76.404 -217.869,76.404l2.273,87.11c119.592,23.034 283.521,-52.123 343.417,-164.556c40.004,-75.1 55.227,-141.15 55.794,-231.837l-93.682,0Z" style="fill:#fff;fill-rule:nonzero;"/></g><path d="M190.306,0.811c0,-0 21.485,200.961 -188.119,192.316l0.399,30.6c-0,-0 230.975,13.494 217.462,-223.444" style="fill:#fff;fill-rule:nonzero;"/><path d="M289.979,0.294c-0,-0 32.496,293.137 -287.229,295.254l-0.563,31.129c0,0 330.979,14.988 318.542,-325.867l-30.75,-0.516Z" style="fill:#fff;fill-rule:nonzero;"/><path d="M384.048,0.294c-0,-0 4.004,392.646 -381.3,385.712l-0.475,31.746c-0,0 381.267,49.513 414.875,-417.458l-33.1,-0Z" style="fill:#fff;fill-rule:nonzero;"/><path d="M110.138,846.98c-0.067,-0.529 -0.113,-1.2 -0.133,-2.033c1.408,-8.175 6.129,-15.829 11.12,-23.925c3.759,-6.096 7.646,-12.396 10.309,-19.287c9.887,-19.313 20.158,-44.9 12.587,-72.242c-6.975,-31.704 -11.346,-64.746 3.6,-91.692c15.713,-29.716 45.154,-45.833 74.638,-58.841c7.341,-3.159 12.366,-8.717 17.225,-14.092c2.729,-3.021 5.312,-5.875 8.141,-8.088c9.446,-7.916 20.367,-15.195 32.625,-21.787c26.809,-12.821 56.234,-20.45 84.692,-27.825c12.075,-3.129 24.554,-6.367 36.763,-9.971c5.72,-1.329 10.75,-6.129 12.566,-12.033c1.563,-5.067 0.463,-10.054 -3.016,-13.675l-0.409,-0.425l-0.479,-0.346c-8.6,-6.192 -17.725,-11.65 -26.55,-16.933c-6.104,-3.646 -12.412,-7.425 -18.404,-11.363l-0.371,-0.242l-0.4,-0.191c-48.217,-22.963 -77.262,-78.946 -67.562,-130.234c1.737,-8.808 0.983,-17.391 0.25,-25.7c-0.742,-8.42 -1.442,-16.375 0.516,-23.945c15.342,-65.417 36.788,-130.675 89.617,-166.034c43.2,-21.075 89.771,-32.216 134.704,-32.216c28.917,-0 56.275,4.683 81.304,13.916c24.629,9.396 56.146,10.359 89.513,11.375c33.758,1.029 68.666,2.096 97.712,12.204c15.763,5.48 32.842,22.125 38.888,37.892c6.879,17.946 6.137,35.396 5.421,52.275c-0.813,19.067 -1.65,38.783 8.57,58.383c53.034,101.705 48.68,221.742 38.267,263.938c-21.458,81.258 -81.196,126.067 -168.171,126.067l-0.008,-0c-23.792,-0 -49.046,-3.371 -75.071,-10.013l-0.162,-0.05c-42.921,-13.275 -87.975,-35.696 -133.913,-66.633c-6.025,-4.109 -11.754,-8.979 -17.821,-14.138c-13.054,-11.096 -26.55,-22.571 -44.121,-26.841l-0.47,-0.113l-0.484,-0.042c-5.704,-0.508 -11.412,-0.766 -16.966,-0.766c-25.375,-0 -47.913,5.158 -66.992,15.337c-23.375,11.425 -47.771,26.338 -49.933,49.542l-0.084,0.867l0.15,0.854c0.609,3.45 2.042,9.375 3.7,16.229c2.925,12.071 8.367,34.542 7.609,39.929l-0.071,0.488l0.008,0.495c0.45,35.025 -9.054,66.371 -25.429,83.888c-19.788,19.462 -44.971,29.346 -71.629,39.808c-25.079,9.842 -51.004,20.017 -72.263,38.9c-3.308,2.096 -7.562,6.8 -14.904,15.063c-5.796,6.525 -18.571,20.908 -24.679,24.266" style="fill:#b9d050;fill-rule:nonzero;"/><path d="M314.066,572.115c-2.134,7.484 -4.825,15.088 -6.325,22.805c-1.967,7.82 -3.013,16.808 -8.488,23.116c-7.733,7.504 -16.108,14.067 -25.725,19.121c-20.487,10.508 -39.379,23.504 -57.516,37.563c-9.3,6.745 -17.134,15.208 -25.546,22.975c-3.942,3.733 -7.321,7.77 -10.459,12.141c-4.804,6.3 -11.183,11.329 -15.441,18.117c-5.284,7.812 -10.342,15.737 -14.671,24.112c-0.254,0.492 -0.346,1.109 -0.696,1.505c-3.883,4.362 -4.879,9.804 -5.842,15.279c-0.529,3.004 -4.687,5.108 -7.337,3.637c-1.492,-1.021 -1.971,-3.208 -1.1,-4.841c3.333,-7.017 2.937,-14.413 2.154,-21.796c-0.642,-6.088 -1.046,-12.088 0.188,-18.188c1.179,-5.829 0.812,-11.762 -0.213,-17.625c-0.508,-2.921 -1.05,-5.816 -0.383,-8.8c0.2,-0.883 0.121,-1.85 0.033,-2.766c-0.921,-9.43 -0.012,-18.842 0.113,-28.263c0.07,-5.442 1.229,-10.658 4,-15.4c4.675,-7.937 11.05,-14.767 16.045,-22.537c6.034,-7.542 11.584,-15.809 19.784,-21.463c6.846,-4.708 13.266,-10.125 20.687,-13.954c8.009,-4.25 16.217,-8.129 24.238,-12.358c5.791,-3.65 12.987,-6.175 17.629,-11.292c8.179,-10.533 19.833,-17.604 30.892,-24.783c3.95,-2.384 7.691,-5.142 11.395,-7.909c5.992,-4.487 12.805,-7.425 19.521,-10.55c17.042,-7.183 34.779,-12.579 52.142,-18.946c9.212,-3.458 23.042,-1.195 31.7,-5.787c5.754,-3.142 22.762,-14.975 27.346,-16.9c3.296,-1.383 15.991,-27.233 10.633,-32.908c-6.75,-8.425 -20.633,-34.196 -31.142,-36.563c-28.108,-6.329 -85.587,-154.937 4.721,-265.192c9.867,-12.045 44.404,-4.87 54.654,-11.683c38.855,-25.829 58.955,34.017 77.734,7.596c21.866,-30.763 43.137,-21.246 48.996,-20.438c4.658,1.38 13.291,-7.287 22.787,-4.3c14.596,4.596 13.942,16.363 21.15,15.934c12.092,-1.009 23.546,-4.729 35.438,-2.592c17.887,1.929 40.508,-2.129 56.416,6.858c13.1,8.088 16.396,21.371 24.484,34.375c0.741,1.284 26.691,3.6 28.104,3.967c32.612,8.354 19.458,30.854 30.171,48.483c2.866,4.717 8.812,6.825 10.925,12.25c0.679,1.738 1.32,3.338 3.354,4.105c0.871,0.329 1.741,1.52 1.987,2.479c1.663,6.525 5.775,12.004 7.775,18.362c1.338,4.234 2.629,8.479 3.85,12.75c3.146,13.104 8.121,25.821 8.567,39.45c0.037,1.842 0.325,3.692 0.658,5.509c3.517,18.72 7.479,37.395 8.25,56.45c-0.921,17.279 6.5,34.008 2.279,51.208c-2.604,10.262 -3.27,20.792 -1.604,31.387c0.95,6.03 1.721,12.092 2.35,18.163c1.004,10.137 0.638,20.3 -0.171,30.446c-0.608,4.537 -0.329,9.241 -0.033,13.846c0.646,9.962 -2.142,18.966 -6.833,27.6c-3.567,6.529 -3.688,14.333 -7.55,20.758c-2.434,4.354 -4.713,8.796 -7.125,13.158c-2.542,3.404 -5.504,6.484 -7.117,10.521c-2.754,5.863 -5.275,11.904 -10.342,16.179c-0.766,0.796 -2.091,1.292 -2.45,2.2c-2.212,5.646 -7.808,6.309 -12.341,8.479c-1.467,0.705 -3.204,0.946 -4.846,1.192c-8.613,1.3 -17.233,2.533 -25.854,3.775c-11.071,0.946 -22.179,1.442 -33.113,3.658c-9.141,1.48 -18.516,1.18 -27.758,1.575c-4.458,0.113 -8.892,0.071 -13.058,-1.991c-3.5,-0.784 -7.359,-1.017 -10.984,-1.438c-4.733,-0.05 -9.008,-2.008 -13.566,-2.791c-16.946,-0.93 -32.438,-8.934 -48.13,-14.688c-4.812,-1.896 -9.658,-3.783 -14.037,-6.642c-1.992,-1.291 -4.658,-1.6 -6.671,-2.745c-9.425,-5.909 -19.842,-9.967 -29.812,-14.85c-8.5,-4.125 -16.784,-8.617 -24.975,-13.35c-7.338,-4.242 -14.292,-9.167 -22.275,-12.442c-6.105,-2.508 -11.58,-6.542 -17.305,-9.942c-7.295,-4.654 -15.558,-8.112 -20.912,-15.191c-5.558,-6.638 -10.821,-13.563 -17.658,-19.1c-6.03,-5.325 -9.525,-7.084 -17.509,-9.021c-12.9,-3.467 -17.2,2.912 -41.708,2.371c-5.983,-0.134 -10.867,4.712 -16.417,6.725c-21.337,7.937 -44.854,12.729 -61.733,29.02c-1.458,1.492 -2.742,2.88 -3.492,4.805c-2.008,5.17 -4.229,10.279 -4.887,16.02" style="fill:#668516;fill-rule:nonzero;"/><path d="M873.45,511.327c-13.879,52.438 -43.208,88.229 -87.175,106.383c-39.783,16.425 -90.042,17.659 -145.371,3.584l-0.008,-0.004c-42.117,-13.025 -86.409,-35.08 -131.65,-65.546c-5.609,-3.825 -11.171,-8.554 -17.054,-13.559c-12.946,-11.004 -27.621,-23.479 -46.705,-28.404l-2.054,-0.508l-1.129,-0.1c-33.317,-2.963 -63.921,2.371 -88.517,15.421c-15.695,7.675 -51.8,25.475 -54.695,56.458l-0.188,2.013l0.35,1.995c0.654,3.721 2.05,9.48 3.817,16.767c2.475,10.225 7.608,31.438 7.412,36.921l-0.129,0.925l0.017,1.154c0.421,32.767 -8.167,61.808 -22.992,77.771c-18.521,18.15 -42.854,27.7 -68.608,37.808c-25.592,10.042 -52.038,20.421 -74.329,40.034c-1.621,1.087 -3.267,2.487 -5.163,4.337c10.496,-20.592 21.188,-47.846 13.017,-77.692c-6.588,-29.987 -10.763,-61.062 2.771,-85.458l0.141,-0.267c14.421,-27.275 42.384,-42.495 70.446,-54.879c8.992,-3.862 15.171,-10.7 20.133,-16.191c2.475,-2.742 4.813,-5.33 7.055,-7.08l0.4,-0.325c8.787,-7.358 19.154,-14.279 30.825,-20.566c26.008,-12.409 53.679,-19.584 82.97,-27.175c12.071,-3.129 24.546,-6.363 36.817,-9.984c8.496,-2.095 15.896,-9.162 18.558,-17.804c2.471,-8.025 0.592,-16.308 -5.029,-22.166l-0.954,-0.988l-1.112,-0.8c-8.892,-6.408 -18.175,-11.958 -27.15,-17.325c-6.305,-3.775 -12.263,-7.337 -18.1,-11.179l-0.867,-0.567l-0.933,-0.446c-44.809,-21.337 -71.813,-73.3 -62.817,-120.87c1.962,-9.946 1.117,-19.567 0.367,-28.05c-0.7,-8 -1.309,-14.909 0.279,-21.046l0.079,-0.329c14.858,-63.359 35.508,-126.605 85.512,-160.384c62.096,-30.158 130.867,-38.879 188.838,-23.916c6.767,1.745 13.462,3.837 19.9,6.208c3.983,1.521 8.475,2.942 13.196,4.158c23.441,6.05 50.441,6.875 79.029,7.746c28.742,0.879 58.462,1.783 83.987,8.371c3.892,1.004 7.646,2.133 11.163,3.354c13.417,4.671 28.529,19.408 33.683,32.854c6.242,16.284 5.567,32.096 4.854,48.834c-0.858,20.195 -1.745,41.079 9.542,62.72c51.85,99.438 47.713,216.521 37.571,257.792m-24.208,-264.758c-18.171,-34.85 1.591,-70.125 -13.688,-109.984c-6.437,-16.8 -24.525,-35.333 -42.804,-41.691c-58.646,-20.404 -138.663,-5.05 -187.113,-23.534c-71.458,-26.362 -154.358,-14.112 -221.483,18.75c-56.087,37.296 -77.975,107.442 -92.65,170.038c-4.275,16.529 2.425,33.379 -0.862,50.067c-10.434,55.166 20.8,113.304 71.141,137.279c14.734,9.687 30.421,17.837 44.725,28.137c4.825,5.025 -0.354,13.654 -6.504,14.95c-41.171,12.179 -83.85,19.659 -122.758,38.296c-11.804,6.333 -23.413,13.85 -33.684,22.458c-8.408,6.575 -14.012,17.067 -23.991,21.359c-31.096,13.721 -61.271,30.579 -77.684,61.621c-16.308,29.4 -11.15,64.987 -4.229,96.4c6.696,23.933 -1.346,46.866 -12.225,68.033c-5.929,15.662 -19.437,28.942 -21.983,45.371c0.092,32.533 41.242,-27 50.033,-31.554c42.179,-37.867 104.367,-39.684 144.692,-79.442c20.817,-22.175 27.65,-58.692 27.267,-88.492c1.341,-9.521 -9.475,-47.55 -11.342,-58.179c1.996,-21.383 28.887,-35.8 46.537,-44.429c24.309,-12.967 53.009,-16.267 80.334,-13.838c23.766,5.775 40.25,26.692 59.858,40.059c41.738,28.108 87.392,52.529 135.613,67.446c-0,0.004 -0.005,0.012 -0.005,0.016c111.48,28.613 219.555,0.763 251.617,-120.654c11.929,-48.329 13.433,-168.287 -38.812,-268.483" style="fill:#1d1d1b;fill-rule:nonzero;"/><path d="M425.195,346.644c0.955,1.933 3.221,4.012 5.955,4.012c0.933,0 2.32,-0.258 3.629,-1.487l0.504,-0.471l-0.075,-0.646c-0.029,-0.233 -0.042,-0.487 -0.058,-0.75c-0.042,-0.725 -0.092,-1.554 -0.384,-2.387l-0.133,-0.384l-0.346,-0.266c-2.3,-1.78 -10.583,-14.809 -9,-46.063c1.379,-27.267 10.988,-75.558 48.921,-150.796l0.542,-1.075l-1.105,-0.671c-0.829,-0.5 -2.004,-0.783 -3.212,-0.783c-0.371,0 -0.725,0.025 -1.067,0.079c-4.583,0.121 -5.521,0.809 -6.575,4.621c-0.083,0.225 -0.666,1.454 -1.341,2.879c-56.28,118.717 -46.871,172.621 -36.255,194.188" style="fill-rule:nonzero;"/><path d="M433.072,420.74c-8.379,-2.855 -20.925,-18.421 -31.962,-39.646c-12.617,-24.275 -21.43,-52.321 -24.171,-76.95c-4.409,-39.596 24.85,-122.113 27.662,-125.379l0.363,-0.33l0.116,-0.479c1.255,-5.121 1.071,-8.762 -0.541,-10.816c-0.834,-1.059 -2.034,-1.642 -3.375,-1.642c-2.963,-0 -6.096,2.783 -7.138,6.337c-33.987,115.842 -29.625,131.113 -19.083,168.009c1.067,3.729 2.196,7.679 3.35,11.975c1.662,6.196 20.529,52.904 40.025,70.733c0.55,0.504 1.062,1.054 1.583,1.6c0.775,0.825 1.579,1.675 2.521,2.421c2.421,1.921 5.371,2.371 7.975,2.762l0.592,0.088l0.304,0.012c2.375,0 3.958,-2.058 4.296,-4.087c0.35,-2.125 -0.659,-3.975 -2.517,-4.608" style="fill-rule:nonzero;"/><path d="M777.937,578.736l-0.305,-0.071l-0.304,0.058c-33.837,6.646 -68.566,8.188 -103.233,4.588l-0.013,-0c-36.212,-3.763 -72.162,-13.154 -106.85,-27.913c-0.383,-0.166 -0.795,-0.271 -1.225,-0.316c-2.275,-0.234 -4.775,1.341 -5.25,3.308c-0.283,1.183 0.138,2.729 2.184,3.517c41.7,16.145 80.787,26.195 116.171,29.875l0.004,-0c41.162,4.275 68.704,-0.738 86.929,-4.055c5.162,-0.941 9.625,-1.754 13.237,-2.116l0.509,-0.054l0.641,-0.621c0.963,-0.925 2.167,-2.071 1.75,-3.571c-0.429,-1.554 -2.291,-2.183 -4.245,-2.629" style="fill-rule:nonzero;"/><path d="M712.051,161.99c0.767,-0.663 2.075,-4.067 1.275,-6.217c-0.5,-1.338 -1.687,-2.108 -3.258,-2.108c-1.025,-0 -2.238,0.312 -3.717,0.954l-0.275,0.121l-0.212,0.212c-88.434,87.083 -159.654,198.754 -194.234,257.567c-0.72,1.229 -0.841,2.641 -0.354,4.083c0.796,2.329 3.217,4.604 6.171,5.796l1.129,0.454l0.75,-0.954c0.175,-0.229 0.359,-0.438 0.534,-0.642c0.441,-0.512 0.9,-1.041 1.237,-1.704c10.1,-19.7 107.417,-185.25 190.954,-257.562" style="fill-rule:nonzero;"/><path d="M621.027,359.197l-0.054,0.037c-2.313,1.467 -3.463,3.125 -3.408,4.925c0.054,1.883 1.425,3.588 4.075,5.063l0.529,0.295l0.596,-0.125c1.1,-0.237 3.05,-2.05 47.454,-48.308c35.721,-37.212 84.646,-88.175 102.391,-104.517l0.225,-0.208l0.134,-0.275c0.416,-0.85 0.875,-1.642 1.358,-2.358l0.088,-0.121l0.058,-0.138c0.287,-0.65 0.575,-1.275 0.925,-1.775l0.687,-0.983l-0.133,-0.175l0.296,-0.35l-1.304,-1.037c-1.075,-0.855 -2.038,-1.884 -2.854,-3.063l-1.096,-1.575l-1.367,1.346c-23.617,23.167 -69.896,71.554 -103.687,106.879c-23.034,24.079 -42.946,44.9 -44.913,46.463" style="fill-rule:nonzero;"/><path d="M821.811,507.305c-0.346,-0.992 -1.2,-1.363 -1.775,-1.563l-0.454,-0.512l-0.967,0.25c-23.191,6.087 -86.162,20.25 -169.783,20.25l-0.021,-0c-26.571,-0 -53.371,-1.43 -79.654,-4.246c-0.158,-0.017 -0.317,-0.025 -0.467,-0.025c-2.42,-0 -3.987,2.025 -4.104,3.983c-0.125,2.071 1.254,3.692 3.354,3.942c23.559,2.808 51.467,4.291 80.713,4.291l0.004,0c71.2,0 135.375,-8.454 171.65,-22.604l0.479,-0.191l0.288,-0.434c0.512,-0.787 1.15,-1.966 0.737,-3.141" style="fill-rule:nonzero;"/><path d="M564.204,135.83c-0.796,-1.458 -2.396,-2.438 -3.983,-2.438c-0.813,0 -1.571,0.259 -2.217,0.771c-1.033,0.846 -1.954,1.904 -2.667,3.063c-71.02,115.25 -90.216,191.366 -99.625,250.621c-1.312,8.245 -2.316,16.637 -3.291,24.745c-0.438,3.65 -0.875,7.296 -1.35,11.042c-0.084,1.221 0.316,2.371 1.116,3.229c0.821,0.875 1.992,1.379 3.209,1.379c1.858,0 3.362,-1.133 3.958,-3.095c0.813,-3.755 4.779,-27.542 5.854,-35.892c9.417,-72.992 48.238,-170.988 98.896,-249.646c0.746,-1.154 0.779,-2.529 0.1,-3.779" style="fill-rule:nonzero;"/><path d="M716.566,464.738c52.088,-13.325 92.225,-28.625 96.975,-33.308c1.259,-1.242 1.021,-3.288 0.163,-4.579c-0.959,-1.438 -2.571,-1.946 -4.113,-1.3c-95.691,40.266 -181.641,49.937 -191.129,50.908l0.167,1.613l-61.013,2.583l-0.071,-1.617c-0.575,0.029 -6.833,1.109 -6.887,3.65c-0.013,0.634 0.379,1.738 1.954,1.875c7.7,0.688 15.663,1 23.788,1c47.795,0 101.237,-10.866 140.166,-20.825" style="fill-rule:nonzero;"/><path d="M547.269,439.817l-0,1.012c-0.509,0 -0.846,-0.333 -0.925,-0.483c0.054,0.104 0.083,0.221 0.121,0.337c0.166,0.513 0.479,1.471 1.504,1.75c0.662,0.179 1.325,0.188 1.904,0.196c0.362,0.004 0.908,0.013 1.05,0.079c1.179,0.813 2.425,1.213 3.804,1.213c1.092,-0 2.125,-0.254 2.913,-0.479c88.85,-25.28 207.487,-97.471 248.937,-130.784c1.596,-1.283 0.896,-3.208 0.479,-4.354c-0.137,-0.379 -0.291,-0.808 -0.321,-1.058l-0.3,-2.659l-2.216,1.5c-126.329,85.342 -209.775,118.659 -257.534,131.58l0.584,2.15Z" style="fill-rule:nonzero;"/><path d="M524.495,303.627c-0.245,0.792 -0.495,1.967 0.15,3.03c0.792,1.295 2.446,1.683 4.367,2.02l1.225,0.171l0.533,-1.104c1.946,-4.012 78.342,-121.946 87.163,-133.337l0.396,-0.546c4.996,-6.817 10.154,-13.871 16.416,-19.746c1.696,-1.596 3.163,-4.175 2.613,-6.338c-0.208,-0.812 -0.896,-2.262 -3.338,-2.895c-0.645,-0.096 -1.279,-0.155 -1.895,-0.155c-2.055,0 -3.738,0.671 -5.15,2.059c-7.455,7.316 -33.55,46.021 -55.488,79.8c-21.596,33.262 -45.517,71.575 -46.992,77.041" style="fill-rule:nonzero;"/></g></g></svg>