<?xml version="1.0" encoding="UTF-8" standalone="no"?><!DOCTYPE svg PUBLIC "-//W3C//DTD SVG 1.1//EN" "http://www.w3.org/Graphics/SVG/1.1/DTD/svg11.dtd"><svg width="100%" height="100%" viewBox="0 0 11403 11405" version="1.1" xmlns="http://www.w3.org/2000/svg" xmlns:xlink="http://www.w3.org/1999/xlink" xml:space="preserve" xmlns:serif="http://www.serif.com/" style="fill-rule:evenodd;clip-rule:evenodd;stroke-linejoin:round;stroke-miterlimit:2;"><g id="g4835"><rect id="rect3886" x="0" y="0" width="11402.5" height="11404.2" style="fill:#2e351a;"/><path d="M3557.43,4308.92c-206.491,-0 -381.596,-154.358 -407.305,-359.021c-2.211,-17.555 -3.342,-34.935 -3.342,-51.626l-0,-727.665l0.052,-1.222c0.026,-16.619 1.274,-34.688 3.693,-52.835c-0,-0 0.592,-4.805 0.806,-6.262c4.428,-29.642 12.23,-59.057 23.219,-87.361c21.138,-54.519 54.539,-104.948 96.58,-145.846c40.898,-41.034 91.607,-73.752 146.243,-94.253c46.158,-17.328 94.67,-26.112 144.182,-26.112c0,0 705.623,0.169 742.75,1.626l42.224,2.542c201.016,28.479 352.603,203.213 352.603,406.479l-4.129,731.117c0,226.218 -184.214,410.439 -410.646,410.439l-726.93,-0Z" style="fill:#fff;fill-rule:nonzero;"/><path d="M4665.29,3166.63c0,-188.24 -139.35,-343.858 -320.503,-369.522c-0.006,1.502 -0.052,2.998 -0.058,4.493c0.006,-1.495 0.052,-2.991 0.052,-4.493c0.006,-1.268 -256.192,-5.325 -256.192,-3.791l0,0.007l-523.541,-0c-46.138,-0 -90.287,8.42 -131.08,23.719c-50.54,18.967 -95.898,48.531 -133.304,86.054c-38.089,37.055 -68.252,82.166 -87.816,132.589c-9.805,25.273 -16.996,51.834 -21.112,79.422c-0.28,1.872 -0.462,3.771 -0.715,5.65c-2.14,16.002 -3.342,32.296 -3.388,48.869c-0,0.325 -0.026,0.65 -0.026,0.982l-0,726.93c-0,15.923 1.112,31.574 3.049,46.964c23.109,183.987 180.008,326.348 370.263,326.348l726.93,0c206.179,0 373.313,-167.14 373.313,-373.312l4.128,-730.909Z" style="fill:#93c01f;fill-rule:nonzero;"/><g opacity="0.1"><path d="M4283.56,2793.8l-71.958,0c-0.501,130.32 -25.494,254.788 -70.332,369.333c-149.286,381.401 -520.232,651.663 -954.539,651.663l-0,-640.629c-1.145,0 -2.269,-0.071 -3.414,-0.084l0,719.96c0,15.917 1.112,31.567 3.043,46.964l1.086,1.911c506.181,0 936.145,-326.173 1091.28,-779.785c39.194,-114.61 60.806,-237.355 61.704,-365.028c-18.544,-2.835 -37.537,-4.305 -56.873,-4.305" style="fill:#fff;fill-rule:nonzero;"/></g><g opacity="0.2"><path d="M4084.2,2793.8c-0.579,131.796 -29.715,256.777 -81.327,369.333c-141.647,308.884 -453.372,523.541 -815.423,523.541l0,-128.141c-0.24,-0 -0.481,0.019 -0.721,0.019l-0,256.244c434.314,0 805.259,-270.262 954.545,-651.663c44.838,-114.545 69.832,-239.013 70.332,-369.333l-127.406,0Z" style="fill:#fff;fill-rule:nonzero;"/></g><g opacity="0.3"><path d="M3955.36,2793.8c-0.682,134.019 -35.696,259.866 -96.639,369.333c-131.178,235.613 -382.532,395.133 -671.273,395.4l0,128.141c362.051,0 673.776,-214.657 815.423,-523.541c51.619,-112.556 80.754,-237.537 81.327,-369.333l-128.838,0Z" style="fill:#fff;fill-rule:nonzero;"/></g><g opacity="0.4"><path d="M3813.27,2792.98c-0.845,137.803 -31.275,266.029 -106.1,370.152c-116.138,161.627 -306.27,254.677 -520.433,254.911l0.716,140.495c288.74,-0.266 540.095,-159.786 671.273,-395.406c60.943,-109.468 95.956,-235.314 96.639,-369.326l-142.095,-0.826Z" style="fill:#fff;fill-rule:nonzero;"/></g><g opacity="0.6"><path d="M3573.1,2789.02c-0.052,5.371 -0.059,5.338 -0,-0l-11.028,0.442c-45.67,0 -86.658,12.38 -127.25,27.094c-0.007,0.078 -0.026,0.156 -0.033,0.234c-51.184,18.856 -97.244,48.258 -135.593,85.566c-37.88,38.011 -67.796,83.915 -87.263,134.982c-0.072,0.006 -0.15,0.026 -0.228,0.032c-15.637,41.698 -24.252,86.834 -24.252,134c-0,-0 0.163,-4.545 -0,2.815l-4.129,100.976c135.541,-0.188 262.792,-25.943 354.333,-112.036c98.499,-92.627 125.983,-227.342 125.983,-386.459l-90.54,12.354Z" style="fill:#fff;fill-rule:nonzero;"/></g><g opacity="0.5"><path d="M3663.64,2776.67c9.487,204.371 -43.063,277.655 -140.339,379.269c-92.497,96.626 -226.322,119.227 -369.236,119.227l0,137.068c186.621,35.943 475.232,-82.471 568.698,-257.921c62.426,-117.192 82.868,-236.127 83.752,-377.643l-142.875,0Z" style="fill:#fff;fill-rule:nonzero;"/></g><path d="M3480.29,2803.04c-0,0 41.782,301.472 -285.301,287.98l-7.634,50.638c0,-0 360.432,23.81 339.346,-345.926c0,0 -28.596,0 -46.411,7.308" style="fill:#fff;fill-rule:nonzero;"/><path d="M3635.83,2792.99c0,0 50.709,457.436 -448.215,460.739l-0.878,48.576c0,-0 516.486,23.388 497.078,-508.508l-47.985,-0.807Z" style="fill:#fff;fill-rule:nonzero;"/><path d="M3782.62,2792.99c0,0 6.249,612.716 -595.011,601.897l-0.741,49.539c0,-0 594.959,77.263 647.404,-651.436l-51.652,0Z" style="fill:#fff;fill-rule:nonzero;"/><path d="M3355.19,4114.23c-0.104,-0.826 -0.175,-1.873 -0.208,-3.173c2.198,-12.757 9.565,-24.701 17.354,-37.335c5.865,-9.512 11.931,-19.343 16.086,-30.097c15.429,-30.137 31.457,-70.066 19.642,-112.732c-10.884,-49.474 -17.704,-101.035 5.618,-143.083c24.519,-46.372 70.462,-71.522 116.471,-91.821c11.456,-4.929 19.297,-13.602 26.879,-21.99c4.259,-4.714 8.29,-9.168 12.705,-12.62c14.74,-12.354 31.781,-23.713 50.91,-33.999c41.834,-20.007 87.751,-31.912 132.16,-43.421c18.843,-4.883 38.316,-9.935 57.367,-15.559c8.927,-2.074 16.775,-9.564 19.61,-18.778c2.438,-7.906 0.722,-15.689 -4.707,-21.339l-0.637,-0.664l-0.748,-0.539c-13.42,-9.662 -27.66,-18.18 -41.431,-26.424c-9.525,-5.69 -19.369,-11.587 -28.719,-17.731l-0.579,-0.377l-0.624,-0.299c-75.241,-35.833 -120.567,-123.194 -105.43,-203.227c2.711,-13.745 1.534,-27.139 0.39,-40.104c-1.157,-13.141 -2.25,-25.553 0.806,-37.367c23.941,-102.082 57.406,-203.916 139.845,-259.092c67.413,-32.887 140.086,-50.273 210.203,-50.273c45.124,-0 87.816,7.308 126.874,21.716c38.433,14.662 87.614,16.164 139.682,17.751c52.68,1.606 107.153,3.27 152.479,19.044c24.597,8.55 51.249,34.526 60.683,59.129c10.735,28.004 9.577,55.235 8.459,81.574c-1.268,29.753 -2.575,60.521 13.375,91.106c82.757,158.708 75.963,346.024 59.714,411.87c-33.485,126.802 -126.704,196.724 -262.427,196.724l-0.013,0c-37.127,0 -76.535,-5.26 -117.147,-15.624l-0.253,-0.078c-66.977,-20.716 -137.283,-55.703 -208.968,-103.98c-9.402,-6.411 -18.342,-14.012 -27.809,-22.062c-20.371,-17.314 -41.431,-35.221 -68.85,-41.885l-0.734,-0.176l-0.755,-0.065c-8.901,-0.793 -17.809,-1.196 -26.476,-1.196c-39.597,-0 -74.766,8.049 -104.539,23.933c-36.476,17.829 -74.545,41.1 -77.92,77.309l-0.13,1.353l0.234,1.333c0.949,5.383 3.186,14.629 5.774,25.325c4.564,18.836 13.056,53.901 11.873,62.309l-0.111,0.76l0.013,0.774c0.702,54.656 -14.129,103.57 -39.682,130.905c-30.878,30.371 -70.176,45.793 -111.776,62.12c-39.135,15.358 -79.591,31.235 -112.764,60.703c-5.162,3.27 -11.801,10.611 -23.257,23.504c-9.045,10.182 -28.98,32.627 -38.512,37.868" style="fill:#b9d050;fill-rule:nonzero;"/><path d="M3673.41,3685.31c-3.329,11.677 -7.53,23.543 -9.87,35.585c-3.069,12.204 -4.701,26.229 -13.245,36.073c-12.068,11.71 -25.137,21.951 -40.143,29.838c-31.971,16.398 -61.451,36.678 -89.754,58.615c-14.512,10.527 -26.736,23.733 -39.864,35.852c-6.151,5.826 -11.424,12.127 -16.32,18.947c-7.496,9.831 -17.451,17.679 -24.096,28.271c-8.245,12.191 -16.138,24.558 -22.894,37.627c-0.396,0.767 -0.539,1.729 -1.085,2.347c-6.06,6.808 -7.614,15.299 -9.116,23.843c-0.826,4.688 -7.315,7.971 -11.45,5.676c-2.328,-1.593 -3.076,-5.006 -1.717,-7.555c5.202,-10.949 4.584,-22.491 3.362,-34.012c-1.002,-9.499 -1.632,-18.862 0.292,-28.381c1.84,-9.097 1.268,-18.355 -0.331,-27.504c-0.794,-4.558 -1.639,-9.077 -0.598,-13.732c0.312,-1.378 0.188,-2.887 0.052,-4.317c-1.437,-14.714 -0.02,-29.402 0.175,-44.103c0.111,-8.492 1.918,-16.632 6.242,-24.032c7.295,-12.386 17.243,-23.043 25.039,-35.169c9.415,-11.769 18.076,-24.669 30.872,-33.492c10.682,-7.347 20.702,-15.8 32.282,-21.775c12.497,-6.632 25.306,-12.685 37.822,-19.285c9.038,-5.696 20.267,-9.636 27.51,-17.62c12.764,-16.437 30.95,-27.471 48.206,-38.674c6.164,-3.719 12.003,-8.024 17.783,-12.341c9.35,-7.003 19.981,-11.587 30.462,-16.463c26.593,-11.21 54.272,-19.63 81.366,-29.565c14.376,-5.396 35.956,-1.866 49.467,-9.031c8.979,-4.903 35.521,-23.368 42.673,-26.372c5.143,-2.159 24.954,-42.497 16.593,-51.353c-10.533,-13.147 -32.198,-53.362 -48.596,-57.055c-43.863,-9.877 -133.558,-241.777 7.367,-413.826c15.396,-18.798 69.291,-7.601 85.286,-18.232c60.632,-40.306 91.997,53.082 121.302,11.853c34.122,-48.004 67.315,-33.153 76.457,-31.892c7.269,2.152 20.741,-11.372 35.559,-6.71c22.777,7.172 21.756,25.533 33.004,24.864c18.869,-1.574 36.743,-7.38 55.3,-4.045c27.913,3.011 63.212,-3.322 88.037,10.703c20.442,12.62 25.585,33.348 38.206,53.641c1.157,2.003 41.651,5.618 43.856,6.19c50.891,13.037 30.364,48.147 47.081,75.657c4.473,7.361 13.751,10.651 17.048,19.116c1.06,2.711 2.061,5.208 5.234,6.405c1.359,0.513 2.718,2.373 3.101,3.868c2.595,10.182 9.012,18.733 12.133,28.655c2.087,6.606 4.103,13.231 6.008,19.896c4.909,20.449 12.672,40.293 13.368,61.561c0.059,2.874 0.507,5.76 1.027,8.595c5.488,29.214 11.671,58.356 12.874,88.089c-1.437,26.964 10.143,53.07 3.557,79.91c-4.064,16.014 -5.104,32.445 -2.503,48.98c1.482,9.408 2.685,18.868 3.667,28.342c1.567,15.819 0.995,31.678 -0.267,47.51c-0.949,7.081 -0.513,14.421 -0.052,21.606c1.008,15.546 -3.342,29.597 -10.663,43.069c-5.566,10.189 -5.754,22.367 -11.782,32.393c-3.797,6.795 -7.353,13.726 -11.118,20.534c-3.966,5.312 -8.589,10.117 -11.106,16.417c-4.297,9.148 -8.231,18.576 -16.137,25.247c-1.197,1.242 -3.264,2.016 -3.824,3.433c-3.452,8.811 -12.184,9.844 -19.259,13.232c-2.288,1.099 -5,1.476 -7.561,1.86c-13.44,2.028 -26.893,3.953 -40.345,5.89c-17.276,1.476 -34.61,2.25 -51.672,5.709c-14.265,2.308 -28.895,1.84 -43.316,2.458c-6.957,0.175 -13.875,0.11 -20.377,-3.108c-5.462,-1.222 -11.483,-1.587 -17.14,-2.243c-7.386,-0.078 -14.057,-3.134 -21.17,-4.357c-26.444,-1.45 -50.618,-13.94 -75.105,-22.919c-7.509,-2.959 -15.071,-5.904 -21.905,-10.364c-3.108,-2.016 -7.269,-2.497 -10.41,-4.285c-14.707,-9.22 -30.962,-15.553 -46.521,-23.173c-13.265,-6.437 -26.19,-13.446 -38.973,-20.833c-11.45,-6.619 -22.302,-14.304 -34.76,-19.415c-9.526,-3.914 -18.069,-10.208 -27.003,-15.513c-11.385,-7.263 -24.278,-12.66 -32.633,-23.707c-8.674,-10.357 -16.886,-21.164 -27.556,-29.805c-9.408,-8.309 -14.863,-11.053 -27.321,-14.077c-20.131,-5.409 -26.841,4.545 -65.085,3.7c-9.337,-0.208 -16.958,7.354 -25.618,10.494c-33.297,12.386 -69.994,19.864 -96.334,45.287c-2.276,2.327 -4.278,4.492 -5.449,7.496c-3.133,8.069 -6.599,16.041 -7.626,25.001" style="fill:#668516;fill-rule:nonzero;"/><path d="M4546.32,3590.45c-21.658,81.827 -67.425,137.679 -136.034,166.009c-62.082,25.631 -140.509,27.555 -226.849,5.591l-0.013,-0.006c-65.722,-20.325 -134.838,-54.74 -205.437,-102.283c-8.752,-5.969 -17.432,-13.349 -26.613,-21.158c-20.201,-17.171 -43.101,-36.638 -72.88,-44.324l-3.206,-0.793l-1.762,-0.156c-51.99,-4.623 -99.747,3.7 -138.128,24.064c-24.494,11.977 -80.833,39.753 -85.352,88.102l-0.293,3.14l0.546,3.115c1.021,5.806 3.199,14.792 5.956,26.164c3.862,15.956 11.873,49.058 11.567,57.614l-0.201,1.444l0.026,1.801c0.656,51.131 -12.744,96.45 -35.878,121.359c-28.902,28.323 -66.873,43.226 -107.062,59c-39.936,15.669 -81.204,31.866 -115.989,62.471c-2.53,1.697 -5.098,3.882 -8.056,6.768c16.378,-32.132 33.062,-74.662 20.312,-121.236c-10.28,-46.795 -16.795,-95.287 4.324,-133.356l0.221,-0.416c22.503,-42.562 66.138,-66.314 109.929,-85.638c14.031,-6.027 23.674,-16.697 31.418,-25.267c3.862,-4.278 7.509,-8.316 11.008,-11.047l0.624,-0.507c13.712,-11.482 29.889,-22.282 48.102,-32.094c40.585,-19.362 83.765,-30.559 129.474,-42.406c18.836,-4.883 38.303,-9.928 57.452,-15.578c13.257,-3.271 24.805,-14.298 28.959,-27.783c3.856,-12.523 0.924,-25.449 -7.847,-34.591l-1.489,-1.541l-1.736,-1.248c-13.876,-10 -28.362,-18.661 -42.367,-27.036c-9.838,-5.891 -19.136,-11.45 -28.245,-17.445l-1.353,-0.884l-1.456,-0.696c-69.923,-33.296 -112.062,-114.383 -98.024,-188.616c3.062,-15.52 1.742,-30.533 0.572,-43.772c-1.092,-12.483 -2.042,-23.264 0.436,-32.841l0.123,-0.514c23.186,-98.869 55.41,-197.563 133.441,-250.275c96.899,-47.061 204.214,-60.67 294.677,-37.321c10.559,2.724 21.008,5.988 31.053,9.688c6.216,2.373 13.225,4.59 20.592,6.489c36.58,9.441 78.713,10.728 123.324,12.087c44.85,1.372 91.229,2.783 131.06,13.062c6.073,1.567 11.932,3.329 17.419,5.235c20.937,7.288 44.519,30.286 52.562,51.268c9.74,25.41 8.687,50.085 7.575,76.203c-1.339,31.515 -2.724,64.103 14.89,97.875c80.911,155.17 74.454,337.876 58.628,402.279m-37.776,-413.15c-28.355,-54.383 2.484,-109.429 -21.359,-171.627c-10.046,-26.216 -38.271,-55.137 -66.795,-65.059c-91.516,-31.841 -216.38,-7.881 -291.986,-36.724c-111.509,-41.138 -240.873,-22.022 -345.62,29.259c-87.523,58.2 -121.678,167.661 -144.578,265.341c-6.671,25.793 3.784,52.087 -1.346,78.128c-16.281,86.086 32.458,176.808 111.015,214.221c22.991,15.117 47.471,27.835 69.792,43.908c7.53,7.841 -0.552,21.307 -10.149,23.329c-64.247,19.005 -130.847,30.677 -191.562,59.76c-18.42,9.883 -36.535,21.613 -52.562,35.046c-13.121,10.26 -21.867,26.632 -37.439,33.329c-48.524,21.411 -95.612,47.718 -121.223,96.158c-25.449,45.878 -17.4,101.412 -6.6,150.43c10.449,37.348 -2.1,73.135 -19.077,106.165c-9.252,24.441 -30.331,45.163 -34.304,70.8c0.143,50.768 64.357,-42.133 78.076,-49.239c65.82,-59.091 162.862,-61.925 225.788,-123.967c32.484,-34.604 43.148,-91.588 42.549,-138.09c2.094,-14.857 -14.785,-74.201 -17.698,-90.787c3.114,-33.369 45.078,-55.866 72.621,-69.331c37.932,-20.234 82.718,-25.384 125.358,-21.593c37.088,9.011 62.81,41.651 93.408,62.51c65.131,43.862 136.373,81.971 211.621,105.248c-0,0.006 -0.007,0.019 -0.007,0.026c173.961,44.649 342.61,1.19 392.643,-188.279c18.615,-75.416 20.962,-262.609 -60.566,-418.962" style="fill:#1d1d1b;fill-rule:nonzero;"/><path d="M3846.83,3333.46c1.489,3.016 5.026,6.261 9.291,6.261c1.457,-0 3.622,-0.403 5.664,-2.321l0.786,-0.735l-0.117,-1.008c-0.045,-0.364 -0.065,-0.76 -0.091,-1.17c-0.065,-1.131 -0.143,-2.425 -0.598,-3.726l-0.208,-0.598l-0.54,-0.416c-3.589,-2.776 -16.515,-23.108 -14.044,-71.88c2.152,-42.549 17.146,-117.907 76.34,-235.314l0.845,-1.677l-1.723,-1.047c-1.294,-0.78 -3.127,-1.222 -5.013,-1.222c-0.578,-0 -1.131,0.039 -1.664,0.123c-7.152,0.189 -8.615,1.262 -10.26,7.211c-0.13,0.351 -1.041,2.269 -2.094,4.493c-87.822,185.255 -73.141,269.371 -56.574,303.026" style="fill-rule:nonzero;"/><path d="M3859.12,3449.09c-13.076,-4.454 -32.654,-28.746 -49.877,-61.867c-19.688,-37.881 -33.44,-81.646 -37.718,-120.079c-6.88,-61.788 38.777,-190.554 43.166,-195.651l0.566,-0.514l0.182,-0.748c1.957,-7.991 1.671,-13.674 -0.845,-16.879c-1.301,-1.652 -3.173,-2.562 -5.267,-2.562c-4.623,0 -9.512,4.343 -11.138,9.89c-53.037,180.768 -46.229,204.598 -29.779,262.173c1.665,5.82 3.427,11.983 5.228,18.687c2.594,9.669 32.035,82.556 62.458,110.378c0.858,0.787 1.658,1.645 2.471,2.497c1.209,1.287 2.464,2.614 3.933,3.777c3.778,2.998 8.381,3.7 12.445,4.311l0.924,0.137l0.474,0.019c3.706,0 6.177,-3.212 6.704,-6.378c0.546,-3.316 -1.028,-6.203 -3.927,-7.191" style="fill-rule:nonzero;"/><path d="M4397.27,3695.64l-0.475,-0.111l-0.475,0.091c-52.802,10.371 -106.996,12.777 -161.093,7.159l-0.02,-0c-56.508,-5.872 -112.608,-20.527 -166.737,-43.557c-0.598,-0.26 -1.242,-0.423 -1.911,-0.494c-3.551,-0.364 -7.452,2.093 -8.193,5.162c-0.442,1.847 0.215,4.259 3.407,5.488c65.072,25.195 126.067,40.878 181.282,46.619l0.007,0c64.233,6.671 107.211,-1.15 135.651,-6.326c8.056,-1.47 15.02,-2.737 20.657,-3.303l0.793,-0.085l1.001,-0.968c1.502,-1.444 3.381,-3.232 2.731,-5.573c-0.669,-2.425 -3.576,-3.407 -6.625,-4.102" style="fill-rule:nonzero;"/><path d="M4294.46,3045.31c1.196,-1.033 3.238,-6.345 1.989,-9.701c-0.78,-2.087 -2.633,-3.29 -5.084,-3.29c-1.6,0 -3.492,0.488 -5.8,1.489l-0.429,0.189l-0.332,0.332c-137.998,135.891 -249.137,310.151 -303.097,401.927c-1.125,1.918 -1.313,4.122 -0.552,6.372c1.241,3.635 5.019,7.185 9.629,9.044l1.762,0.709l1.17,-1.489c0.273,-0.357 0.56,-0.683 0.833,-1.001c0.689,-0.8 1.404,-1.626 1.931,-2.659c15.761,-30.742 167.621,-289.079 297.98,-401.922" style="fill-rule:nonzero;"/><path d="M4152.42,3353.05l-0.085,0.059c-3.609,2.288 -5.403,4.876 -5.319,7.685c0.085,2.939 2.224,5.598 6.359,7.9l0.826,0.462l0.93,-0.195c1.716,-0.371 4.759,-3.199 74.051,-75.385c55.742,-58.069 132.088,-137.595 159.78,-163.096l0.351,-0.325l0.208,-0.429c0.651,-1.326 1.366,-2.562 2.12,-3.68l0.137,-0.189l0.091,-0.214c0.448,-1.015 0.897,-1.99 1.443,-2.77l1.073,-1.535l-0.208,-0.273l0.461,-0.546l-2.035,-1.619c-1.677,-1.333 -3.179,-2.939 -4.454,-4.779l-1.71,-2.458l-2.132,2.101c-36.854,36.151 -109.071,111.658 -161.802,166.782c-35.943,37.575 -67.017,70.066 -70.085,72.504" style="fill-rule:nonzero;"/><path d="M4465.74,3584.17c-0.54,-1.548 -1.872,-2.127 -2.77,-2.439l-0.708,-0.799l-1.509,0.39c-36.19,9.499 -134.455,31.599 -264.943,31.599l-0.033,0c-41.463,0 -83.284,-2.23 -124.299,-6.625c-0.247,-0.026 -0.494,-0.039 -0.728,-0.039c-3.777,-0 -6.222,3.16 -6.404,6.216c-0.195,3.231 1.957,5.761 5.234,6.151c36.762,4.382 80.313,6.697 125.95,6.697l0.007,-0c111.106,-0 211.25,-13.193 267.856,-35.274l0.748,-0.299l0.448,-0.676c0.8,-1.229 1.795,-3.069 1.151,-4.902" style="fill-rule:nonzero;"/><path d="M4063.75,3004.49c-1.241,-2.276 -3.738,-3.804 -6.215,-3.804c-1.268,0 -2.452,0.403 -3.459,1.203c-1.613,1.32 -3.05,2.972 -4.162,4.779c-110.826,179.845 -140.781,298.624 -155.463,391.089c-2.048,12.867 -3.615,25.962 -5.136,38.615c-0.683,5.696 -1.366,11.385 -2.107,17.231c-0.13,1.905 0.494,3.699 1.743,5.039c1.281,1.365 3.108,2.152 5.006,2.152c2.9,-0 5.247,-1.769 6.177,-4.831c1.268,-5.859 7.458,-42.978 9.135,-56.008c14.695,-113.902 75.274,-266.823 154.325,-389.568c1.164,-1.801 1.216,-3.946 0.156,-5.897" style="fill-rule:nonzero;"/><path d="M4301.51,3517.75c81.282,-20.794 143.916,-44.669 151.328,-51.977c1.964,-1.938 1.593,-5.13 0.254,-7.146c-1.496,-2.243 -4.012,-3.036 -6.418,-2.029c-149.325,62.836 -283.448,77.927 -298.253,79.442l0.26,2.516l-95.209,4.031l-0.11,-2.522c-0.898,0.045 -10.664,1.729 -10.748,5.695c-0.02,0.989 0.592,2.712 3.049,2.926c12.016,1.073 24.441,1.561 37.12,1.561c74.585,-0 157.979,-16.957 218.727,-32.497" style="fill-rule:nonzero;"/><path d="M4037.32,3478.86l0,1.58c-0.793,0 -1.32,-0.52 -1.443,-0.754c0.084,0.162 0.13,0.344 0.188,0.526c0.26,0.8 0.748,2.296 2.347,2.731c1.034,0.28 2.068,0.293 2.972,0.306c0.566,0.006 1.417,0.019 1.638,0.123c1.84,1.268 3.785,1.893 5.937,1.893c1.703,-0 3.316,-0.397 4.545,-0.748c138.648,-39.448 323.78,-152.102 388.462,-204.085c2.49,-2.003 1.397,-5.007 0.747,-6.795c-0.214,-0.591 -0.455,-1.261 -0.5,-1.651l-0.469,-4.148l-3.459,2.34c-197.134,133.174 -327.349,185.164 -401.875,205.327l0.91,3.355Z" style="fill-rule:nonzero;"/><path d="M4001.78,3266.34c-0.384,1.235 -0.774,3.069 0.234,4.727c1.235,2.022 3.817,2.626 6.814,3.153l1.912,0.267l0.832,-1.723c3.036,-6.262 122.25,-190.294 136.015,-208.071l0.618,-0.852c7.796,-10.637 15.845,-21.645 25.618,-30.813c2.646,-2.49 4.935,-6.515 4.076,-9.889c-0.325,-1.268 -1.397,-3.531 -5.208,-4.519c-1.007,-0.15 -1.996,-0.241 -2.958,-0.241c-3.206,0 -5.832,1.047 -8.037,3.212c-11.632,11.418 -52.354,71.815 -86.587,124.527c-33.7,51.905 -71.028,111.691 -73.329,120.222" style="fill-rule:nonzero;"/><g transform="matrix(458.333,0,0,458.333,7832.78,3702.13)"></g><text x="4839.16px" y="3702.13px" style="font-family:'PraxisNext-SemiBold', 'Praxis Next', sans-serif;font-weight:600;font-size:458.333px;fill:#fff;">F<tspan x="5040.48px 5146.01px 5395px 5621.99px 5787.56px 5893.09px 6144.83px 6399.31px 6521.96px 6921.28px 7153.77px 7386.25px 7638.91px " y="3702.13px 3702.13px 3702.13px 3702.13px 3702.13px 3702.13px 3702.13px 3702.13px 3702.13px 3702.13px 3702.13px 3702.13px 3702.13px ">loating Weeds</tspan></text><g id="g4090"><path id="path4088" d="M4041.93,3667.86c0.04,-2.266 -0.024,-4.533 -0.21,-6.763c1.741,1.377 3.442,2.796 5.2,4.173" style="fill:#a7a9ac;"/></g><g id="g4094"><path id="path4092" d="M3931.57,3568.37c0.161,0.04 0.23,0.04 0.367,0.081" style="fill:#a7a9ac;"/></g><g id="g4106"><path id="path4104" d="M3620.93,4187.31c0,-0 0.162,0.04 0.364,0.121" style="fill:#a7a9ac;"/></g><g id="g4110"><path id="path4108" d="M4117.92,3065.57c-0,0 2.711,-3.523 7.725,-9.918c0.335,0.282 0.674,0.565 1.01,0.848" style="fill:#a7a9ac;"/></g></g><g id="g617"></g></svg>